<?xml version="1.0" encoding="UTF-8"?>
<svg width="55px" height="62px" viewBox="0 0 55 62" version="1.1" xmlns="http://www.w3.org/2000/svg" xmlns:xlink="http://www.w3.org/1999/xlink">
    <!-- Generator: Sketch 43.1 (39012) - http://www.bohemiancoding.com/sketch -->
    <title>投票</title>
    <desc>Created with Sketch.</desc>
    <defs></defs>
    <g id="Page-1" stroke="none" stroke-width="1" fill="none" fill-rule="evenodd">
        <g id="发布选项2" transform="translate(-568.000000, -418.000000)" fill="#F27171">
            <g id="Group-2" transform="translate(-1.000000, 40.000000)">
                <path d="M573.5,408 L573.5,397 L597.508383,397 C598.60216,397 599.5,396.104569 599.5,395 C599.5,393.88773 598.608323,393 597.508383,393 L573.5,393 L573.5,379.99263 C573.5,378.900351 572.604569,378 571.5,378 C570.38773,378 569.5,378.892131 569.5,379.99263 L569.5,438.00737 C569.5,439.099649 570.395431,440 571.5,440 C572.61227,440 573.5,439.107869 573.5,438.00737 L573.5,427 L608.49473,427 C609.605527,427 610.5,426.104569 610.5,425 C610.5,423.88773 609.60221,423 608.49473,423 L573.5,423 L573.5,412 L621.49791,412 C622.607783,412 623.5,411.104569 623.5,410 C623.5,408.88773 622.603634,408 621.49791,408 L573.5,408 Z" id="投票"></path>
            </g>
        </g>
    </g>
</svg>